<svg xmlns="http://www.w3.org/2000/svg" viewBox="0 0 240 480" fill="none" aria-hidden="true">
  <g stroke="currentColor" stroke-width="1.35" stroke-linecap="round" stroke-linejoin="round">
    <path d="M212 466C184 391 168 329 168 260c0-76 21-146 53-232"/>
    <path d="M176 334c-32-16-58-43-73-77M170 286c27-18 47-44 58-75M176 225c-30-18-52-44-65-76M190 166c21-18 35-42 42-70M203 105c-15-16-25-34-29-55"/>
    <path d="M103 257c-7-33 1-59 25-79 4 31-5 57-25 79Z"/>
    <path d="M228 211c-31 8-50 29-59 60 31-9 51-29 59-60Z"/>
    <path d="M111 149c0 34 13 59 39 75 0-33-13-58-39-75Z"/>
    <path d="M232 96c-26 8-42 26-48 54 26-8 42-26 48-54Z"/>
    <path d="M174 50c0 25 10 43 30 55 0-24-10-42-30-55Z"/>
    <path d="M170 334c-35 2-60 17-76 45 35-2 60-17 76-45Z"/>
  </g>
</svg>
